<!-- Derived from TheJollyDuck Irixium artwork; see ../README.upstream.md -->
<!-- SPDX-License-Identifier: CC-BY-NC-SA-4.0 -->
<svg xmlns="http://www.w3.org/2000/svg" width="3" height="50" viewBox="0 0 3 50" shape-rendering="crispEdges">
<rect x="1" y="1" width="1" height="1" class="error" fill="#cc0000"/>
<rect x="1" y="2" width="1" height="1" class="error" fill="#cc0000"/>
<rect x="1" y="3" width="1" height="1" class="error" fill="#cc0000"/>
<rect x="1" y="4" width="1" height="1" class="error" fill="#cc0000"/>
<rect x="1" y="5" width="1" height="1" class="error" fill="#cc0000"/>
<rect x="1" y="6" width="1" height="1" class="error" fill="#cc0000"/>
<rect x="1" y="7" width="1" height="1" class="error" fill="#cc0000"/>
<rect x="1" y="8" width="1" height="1" class="error" fill="#cc0000"/>
<rect x="1" y="9" width="1" height="1" class="error" fill="#cc0000"/>
<rect x="1" y="10" width="1" height="1" class="error" fill="#cc0000"/>
<rect x="1" y="11" width="1" height="1" class="error" fill="#cc0000"/>
<rect x="1" y="12" width="1" height="1" class="error" fill="#cc0000"/>
<rect x="1" y="13" width="1" height="1" class="error" fill="#cc0000"/>
<rect x="1" y="14" width="1" height="1" class="error" fill="#cc0000"/>
<rect x="1" y="15" width="1" height="1" class="error" fill="#cc0000"/>
<rect x="1" y="16" width="1" height="1" class="error" fill="#cc0000"/>
<rect x="1" y="17" width="1" height="1" class="error" fill="#cc0000"/>
<rect x="1" y="18" width="1" height="1" class="error" fill="#cc0000"/>
<rect x="1" y="19" width="1" height="1" class="error" fill="#cc0000"/>
<rect x="1" y="20" width="1" height="1" class="error" fill="#cc0000"/>
<rect x="1" y="21" width="1" height="1" class="error" fill="#cc0000"/>
<rect x="1" y="22" width="1" height="1" class="error" fill="#cc0000"/>
<rect x="1" y="23" width="1" height="1" class="error" fill="#cc0000"/>
<rect x="1" y="24" width="1" height="1" class="error" fill="#cc0000"/>
<rect x="1" y="25" width="1" height="1" class="error" fill="#cc0000"/>
<rect x="1" y="26" width="1" height="1" class="error" fill="#cc0000"/>
<rect x="1" y="27" width="1" height="1" class="error" fill="#cc0000"/>
<rect x="1" y="28" width="1" height="1" class="error" fill="#cc0000"/>
<rect x="1" y="29" width="1" height="1" class="error" fill="#cc0000"/>
<rect x="1" y="30" width="1" height="1" class="error" fill="#cc0000"/>
<rect x="1" y="31" width="1" height="1" class="error" fill="#cc0000"/>
<rect x="1" y="32" width="1" height="1" class="error" fill="#cc0000"/>
<rect x="1" y="33" width="1" height="1" class="error" fill="#cc0000"/>
<rect x="1" y="34" width="1" height="1" class="error" fill="#cc0000"/>
<rect x="1" y="35" width="1" height="1" class="error" fill="#cc0000"/>
<rect x="1" y="36" width="1" height="1" class="error" fill="#cc0000"/>
<rect x="1" y="37" width="1" height="1" class="error" fill="#cc0000"/>
<rect x="1" y="38" width="1" height="1" class="error" fill="#cc0000"/>
<rect x="1" y="39" width="1" height="1" class="error" fill="#cc0000"/>
<rect x="1" y="40" width="1" height="1" class="error" fill="#cc0000"/>
<rect x="1" y="41" width="1" height="1" class="error" fill="#cc0000"/>
<rect x="1" y="42" width="1" height="1" class="error" fill="#cc0000"/>
<rect x="1" y="43" width="1" height="1" class="error" fill="#cc0000"/>
<rect x="1" y="44" width="1" height="1" class="error" fill="#cc0000"/>
<rect x="1" y="45" width="1" height="1" class="error" fill="#cc0000"/>
<rect x="1" y="46" width="1" height="1" class="error" fill="#cc0000"/>
<rect x="1" y="47" width="1" height="1" class="error" fill="#cc0000"/>
<rect x="1" y="48" width="1" height="1" class="error" fill="#cc0000"/>
<rect x="1" y="49" width="1" height="1" class="error" fill="#cc0000"/>
<rect x="0" y="0" width="2" height="1" class="success" fill="#4e9a06"/>
<rect x="0" y="1" width="1" height="1" class="success" fill="#4e9a06"/>
<rect x="0" y="2" width="1" height="1" class="success" fill="#4e9a06"/>
<rect x="0" y="3" width="1" height="1" class="success" fill="#4e9a06"/>
<rect x="0" y="4" width="1" height="1" class="success" fill="#4e9a06"/>
<rect x="0" y="5" width="1" height="1" class="success" fill="#4e9a06"/>
<rect x="0" y="6" width="1" height="1" class="success" fill="#4e9a06"/>
<rect x="0" y="7" width="1" height="1" class="success" fill="#4e9a06"/>
<rect x="0" y="8" width="1" height="1" class="success" fill="#4e9a06"/>
<rect x="0" y="9" width="1" height="1" class="success" fill="#4e9a06"/>
<rect x="0" y="10" width="1" height="1" class="success" fill="#4e9a06"/>
<rect x="0" y="11" width="1" height="1" class="success" fill="#4e9a06"/>
<rect x="0" y="12" width="1" height="1" class="success" fill="#4e9a06"/>
<rect x="0" y="13" width="1" height="1" class="success" fill="#4e9a06"/>
<rect x="0" y="14" width="1" height="1" class="success" fill="#4e9a06"/>
<rect x="0" y="15" width="1" height="1" class="success" fill="#4e9a06"/>
<rect x="0" y="16" width="1" height="1" class="success" fill="#4e9a06"/>
<rect x="0" y="17" width="1" height="1" class="success" fill="#4e9a06"/>
<rect x="0" y="18" width="1" height="1" class="success" fill="#4e9a06"/>
<rect x="0" y="19" width="1" height="1" class="success" fill="#4e9a06"/>
<rect x="0" y="20" width="1" height="1" class="success" fill="#4e9a06"/>
<rect x="0" y="21" width="1" height="1" class="success" fill="#4e9a06"/>
<rect x="0" y="22" width="1" height="1" class="success" fill="#4e9a06"/>
<rect x="0" y="23" width="1" height="1" class="success" fill="#4e9a06"/>
<rect x="0" y="24" width="1" height="1" class="success" fill="#4e9a06"/>
<rect x="0" y="25" width="1" height="1" class="success" fill="#4e9a06"/>
<rect x="0" y="26" width="1" height="1" class="success" fill="#4e9a06"/>
<rect x="0" y="27" width="1" height="1" class="success" fill="#4e9a06"/>
<rect x="0" y="28" width="1" height="1" class="success" fill="#4e9a06"/>
<rect x="0" y="29" width="1" height="1" class="success" fill="#4e9a06"/>
<rect x="0" y="30" width="1" height="1" class="success" fill="#4e9a06"/>
<rect x="0" y="31" width="1" height="1" class="success" fill="#4e9a06"/>
<rect x="0" y="32" width="1" height="1" class="success" fill="#4e9a06"/>
<rect x="0" y="33" width="1" height="1" class="success" fill="#4e9a06"/>
<rect x="0" y="34" width="1" height="1" class="success" fill="#4e9a06"/>
<rect x="0" y="35" width="1" height="1" class="success" fill="#4e9a06"/>
<rect x="0" y="36" width="1" height="1" class="success" fill="#4e9a06"/>
<rect x="0" y="37" width="1" height="1" class="success" fill="#4e9a06"/>
<rect x="0" y="38" width="1" height="1" class="success" fill="#4e9a06"/>
<rect x="0" y="39" width="1" height="1" class="success" fill="#4e9a06"/>
<rect x="0" y="40" width="1" height="1" class="success" fill="#4e9a06"/>
<rect x="0" y="41" width="1" height="1" class="success" fill="#4e9a06"/>
<rect x="0" y="42" width="1" height="1" class="success" fill="#4e9a06"/>
<rect x="0" y="43" width="1" height="1" class="success" fill="#4e9a06"/>
<rect x="0" y="44" width="1" height="1" class="success" fill="#4e9a06"/>
<rect x="0" y="45" width="1" height="1" class="success" fill="#4e9a06"/>
<rect x="0" y="46" width="1" height="1" class="success" fill="#4e9a06"/>
<rect x="0" y="47" width="1" height="1" class="success" fill="#4e9a06"/>
<rect x="0" y="48" width="1" height="1" class="success" fill="#4e9a06"/>
<rect x="0" y="49" width="1" height="1" class="success" fill="#4e9a06"/>
</svg>
