<!-- SPDX-License-Identifier: GPL-3.0-or-later -->
<svg xmlns="http://www.w3.org/2000/svg" width="18" height="18" viewBox="0 0 18 18" shape-rendering="crispEdges">
<rect x="0" y="0" width="18" height="1" class="error" fill="#cc0000"/>
<rect x="0" y="1" width="1" height="1" class="error" fill="#cc0000"/>
<rect x="0" y="2" width="1" height="1" class="error" fill="#cc0000"/>
<rect x="0" y="3" width="1" height="1" class="error" fill="#cc0000"/>
<rect x="0" y="4" width="1" height="1" class="error" fill="#cc0000"/>
<rect x="8" y="4" width="1" height="1" class="error" fill="#cc0000"/>
<rect x="0" y="5" width="1" height="1" class="error" fill="#cc0000"/>
<rect x="8" y="5" width="2" height="1" class="error" fill="#cc0000"/>
<rect x="0" y="6" width="1" height="1" class="error" fill="#cc0000"/>
<rect x="8" y="6" width="2" height="1" class="error" fill="#cc0000"/>
<rect x="0" y="7" width="1" height="1" class="error" fill="#cc0000"/>
<rect x="7" y="7" width="4" height="1" class="error" fill="#cc0000"/>
<rect x="0" y="8" width="1" height="1" class="error" fill="#cc0000"/>
<rect x="7" y="8" width="4" height="1" class="error" fill="#cc0000"/>
<rect x="0" y="9" width="1" height="1" class="error" fill="#cc0000"/>
<rect x="6" y="9" width="6" height="1" class="error" fill="#cc0000"/>
<rect x="0" y="10" width="1" height="1" class="error" fill="#cc0000"/>
<rect x="6" y="10" width="6" height="1" class="error" fill="#cc0000"/>
<rect x="0" y="11" width="1" height="1" class="error" fill="#cc0000"/>
<rect x="5" y="11" width="8" height="1" class="error" fill="#cc0000"/>
<rect x="0" y="12" width="1" height="1" class="error" fill="#cc0000"/>
<rect x="5" y="12" width="8" height="1" class="error" fill="#cc0000"/>
<rect x="0" y="13" width="1" height="1" class="error" fill="#cc0000"/>
<rect x="0" y="14" width="1" height="1" class="error" fill="#cc0000"/>
<rect x="0" y="15" width="1" height="1" class="error" fill="#cc0000"/>
<rect x="0" y="16" width="1" height="1" class="error" fill="#cc0000"/>
<rect x="0" y="17" width="1" height="1" class="error" fill="#cc0000"/>
<rect x="1" y="1" width="16" height="1" class="success" fill="#4e9a06"/>
<rect x="1" y="2" width="1" height="1" class="success" fill="#4e9a06"/>
<rect x="1" y="3" width="1" height="1" class="success" fill="#4e9a06"/>
<rect x="1" y="4" width="1" height="1" class="success" fill="#4e9a06"/>
<rect x="1" y="5" width="1" height="1" class="success" fill="#4e9a06"/>
<rect x="1" y="6" width="1" height="1" class="success" fill="#4e9a06"/>
<rect x="1" y="7" width="1" height="1" class="success" fill="#4e9a06"/>
<rect x="1" y="8" width="1" height="1" class="success" fill="#4e9a06"/>
<rect x="1" y="9" width="1" height="1" class="success" fill="#4e9a06"/>
<rect x="1" y="10" width="1" height="1" class="success" fill="#4e9a06"/>
<rect x="1" y="11" width="1" height="1" class="success" fill="#4e9a06"/>
<rect x="1" y="12" width="1" height="1" class="success" fill="#4e9a06"/>
<rect x="1" y="13" width="1" height="1" class="success" fill="#4e9a06"/>
<rect x="1" y="14" width="1" height="1" class="success" fill="#4e9a06"/>
<rect x="1" y="15" width="1" height="1" class="success" fill="#4e9a06"/>
<rect x="1" y="16" width="1" height="1" class="success" fill="#4e9a06"/>
<rect x="2" y="2" width="14" height="1" class="warning" fill="#f57900"/>
<rect x="2" y="3" width="14" height="1" class="warning" fill="#f57900"/>
<rect x="2" y="4" width="6" height="1" class="warning" fill="#f57900"/>
<rect x="9" y="4" width="7" height="1" class="warning" fill="#f57900"/>
<rect x="2" y="5" width="6" height="1" class="warning" fill="#f57900"/>
<rect x="10" y="5" width="6" height="1" class="warning" fill="#f57900"/>
<rect x="2" y="6" width="6" height="1" class="warning" fill="#f57900"/>
<rect x="11" y="6" width="5" height="1" class="warning" fill="#f57900"/>
<rect x="2" y="7" width="5" height="1" class="warning" fill="#f57900"/>
<rect x="11" y="7" width="5" height="1" class="warning" fill="#f57900"/>
<rect x="2" y="8" width="5" height="1" class="warning" fill="#f57900"/>
<rect x="12" y="8" width="4" height="1" class="warning" fill="#f57900"/>
<rect x="2" y="9" width="4" height="1" class="warning" fill="#f57900"/>
<rect x="12" y="9" width="4" height="1" class="warning" fill="#f57900"/>
<rect x="2" y="10" width="4" height="1" class="warning" fill="#f57900"/>
<rect x="13" y="10" width="3" height="1" class="warning" fill="#f57900"/>
<rect x="2" y="11" width="3" height="1" class="warning" fill="#f57900"/>
<rect x="13" y="11" width="3" height="1" class="warning" fill="#f57900"/>
<rect x="2" y="12" width="3" height="1" class="warning" fill="#f57900"/>
<rect x="14" y="12" width="2" height="1" class="warning" fill="#f57900"/>
<rect x="2" y="13" width="4" height="1" class="warning" fill="#f57900"/>
<rect x="14" y="13" width="2" height="1" class="warning" fill="#f57900"/>
<rect x="2" y="14" width="14" height="1" class="warning" fill="#f57900"/>
<rect x="2" y="15" width="14" height="1" class="warning" fill="#f57900"/>
</svg>
