<?xml version="1.0" encoding="UTF-8"?>
<svg xmlns="http://www.w3.org/2000/svg" width="64" height="64" viewBox="0 0 64 64">
<title>fifteenpuzzle — IrixClassic-SGI</title>
<desc>Original artwork inspired by the SGI Indigo Magic design language. MIT license.</desc>
<polygon points="6,51 38,35 59,46 27,62" fill="#50534e" stroke="none" stroke-width="1.1" stroke-linejoin="miter"/><polygon points="6,48 38,32 59,43 27,59" fill="#f3f2e9" stroke="#20201e" stroke-width="1.1" stroke-linejoin="miter"/><path d="M9 48L27 56L55 43" fill="none" stroke="#b9b8ad" stroke-width="1.2" stroke-linejoin="round" stroke-linecap="square"/><g transform="translate(3 -1) scale(.86)"><g transform="matrix(1 -.25 0 .8 12 19)"><rect x="0" y="0" width="40" height="36" fill="#e3e1d7" stroke="#20201e" stroke-width="1.1"/><path d="M0 0V36" fill="none" stroke="#777970" stroke-width="0.8" stroke-linejoin="round" stroke-linecap="square"/><path d="M13 0V36" fill="none" stroke="#777970" stroke-width="0.8" stroke-linejoin="round" stroke-linecap="square"/><path d="M26 0V36" fill="none" stroke="#777970" stroke-width="0.8" stroke-linejoin="round" stroke-linecap="square"/><path d="M39 0V36" fill="none" stroke="#777970" stroke-width="0.8" stroke-linejoin="round" stroke-linecap="square"/><path d="M0 0H40" fill="none" stroke="#777970" stroke-width="0.8" stroke-linejoin="round" stroke-linecap="square"/><path d="M0 12H40" fill="none" stroke="#777970" stroke-width="0.8" stroke-linejoin="round" stroke-linecap="square"/><path d="M0 24H40" fill="none" stroke="#777970" stroke-width="0.8" stroke-linejoin="round" stroke-linecap="square"/><path d="M0 36H40" fill="none" stroke="#777970" stroke-width="0.8" stroke-linejoin="round" stroke-linecap="square"/></g><polygon points="13,20 22,18 22,26 13,28" fill="#b29b55" stroke="#20201e" stroke-width="1.1" stroke-linejoin="miter"/><polygon points="26,17 35,15 35,23 26,25" fill="#76618d" stroke="#20201e" stroke-width="1.1" stroke-linejoin="miter"/><polygon points="39,14 48,12 48,20 39,22" fill="#b29b55" stroke="#20201e" stroke-width="1.1" stroke-linejoin="miter"/><polygon points="13,30 22,28 22,36 13,38" fill="#76618d" stroke="#20201e" stroke-width="1.1" stroke-linejoin="miter"/><polygon points="26,27 35,25 35,33 26,35" fill="#b29b55" stroke="#20201e" stroke-width="1.1" stroke-linejoin="miter"/><polygon points="39,24 48,22 48,30 39,32" fill="#76618d" stroke="#20201e" stroke-width="1.1" stroke-linejoin="miter"/><polygon points="13,40 22,38 22,46 13,48" fill="#b29b55" stroke="#20201e" stroke-width="1.1" stroke-linejoin="miter"/><polygon points="26,37 35,35 35,43 26,45" fill="#76618d" stroke="#20201e" stroke-width="1.1" stroke-linejoin="miter"/></g>
</svg>
