<?xml version="1.0" encoding="UTF-8"?>
<svg xmlns="http://www.w3.org/2000/svg" width="64" height="64" viewBox="0 0 64 64">
<title>galculator — IrixClassic-SGI</title>
<desc>Original artwork inspired by the SGI Indigo Magic design language. MIT license.</desc>
<polygon points="6,51 38,35 59,46 27,62" fill="#50534e" stroke="none" stroke-width="1.1" stroke-linejoin="miter"/><polygon points="6,48 38,32 59,43 27,59" fill="#f3f2e9" stroke="#20201e" stroke-width="1.1" stroke-linejoin="miter"/><path d="M9 48L27 56L55 43" fill="none" stroke="#b9b8ad" stroke-width="1.2" stroke-linejoin="round" stroke-linecap="square"/><g transform="translate(3 -1) scale(.86)"><polygon points="13,11 37,2 49,9 25,20" fill="#f3f2e9" stroke="#20201e" stroke-width="1.1" stroke-linejoin="miter"/><polygon points="25,20 49,9 49,43 25,54" fill="#777970" stroke="#20201e" stroke-width="1.1" stroke-linejoin="miter"/><polygon points="28,22 46,15 46,25 28,32" fill="#538478" stroke="#20201e" stroke-width="1.1" stroke-linejoin="miter"/><polygon points="29,35 33,33 33,37 29,39" fill="#e3e1d7" stroke="#20201e" stroke-width="1.1" stroke-linejoin="miter"/><polygon points="29,41 33,39 33,43 29,45" fill="#e3e1d7" stroke="#20201e" stroke-width="1.1" stroke-linejoin="miter"/><polygon points="35,33 39,31 39,35 35,37" fill="#e3e1d7" stroke="#20201e" stroke-width="1.1" stroke-linejoin="miter"/><polygon points="35,39 39,37 39,41 35,43" fill="#e3e1d7" stroke="#20201e" stroke-width="1.1" stroke-linejoin="miter"/><polygon points="41,31 45,29 45,33 41,35" fill="#b29b55" stroke="#20201e" stroke-width="1.1" stroke-linejoin="miter"/><polygon points="41,37 45,35 45,39 41,41" fill="#b29b55" stroke="#20201e" stroke-width="1.1" stroke-linejoin="miter"/></g>
</svg>
