<?xml version="1.0" encoding="UTF-8"?>
<svg xmlns="http://www.w3.org/2000/svg" width="64" height="64" viewBox="0 0 64 64">
<title>gpicview — IrixClassic-SGI</title>
<desc>Original artwork inspired by the SGI Indigo Magic design language. MIT license.</desc>
<polygon points="6,51 38,35 59,46 27,62" fill="#50534e" stroke="none" stroke-width="1.1" stroke-linejoin="miter"/><polygon points="6,48 38,32 59,43 27,59" fill="#f3f2e9" stroke="#20201e" stroke-width="1.1" stroke-linejoin="miter"/><path d="M9 48L27 56L55 43" fill="none" stroke="#b9b8ad" stroke-width="1.2" stroke-linejoin="round" stroke-linecap="square"/><g transform="translate(3 -1) scale(.86)"><g transform="matrix(1 -.25 0 1 12 16)"><rect x="0" y="0" width="39" height="36" fill="#b9b8ad" stroke="#20201e" stroke-width="1.1"/><rect x="4" y="4" width="31" height="23" fill="#52748c" stroke="#20201e" stroke-width="1.1"/><polygon points="5,26 15,14 21,20 27,10 35,23 35,27" fill="#538478" stroke="#20201e" stroke-width="1.1" stroke-linejoin="miter"/><circle cx="12" cy="10" r="3" fill="#b29b55" stroke="#20201e" stroke-width="1.1"/><rect x="5" y="29" width="4" height="3" fill="#777970" stroke="none" stroke-width="1.1"/><rect x="12" y="29" width="4" height="3" fill="#777970" stroke="none" stroke-width="1.1"/><rect x="19" y="29" width="4" height="3" fill="#777970" stroke="none" stroke-width="1.1"/><rect x="26" y="29" width="4" height="3" fill="#777970" stroke="none" stroke-width="1.1"/></g><polygon points="12,16 12,52 17,55 17,19" fill="#777970" stroke="#20201e" stroke-width="1.1" stroke-linejoin="miter"/><path d="M16 20L21 18" fill="none" stroke="#f3f2e9" stroke-width="1" stroke-linejoin="round" stroke-linecap="square"/></g>
</svg>
