<?xml version="1.0" encoding="UTF-8"?>
<svg xmlns="http://www.w3.org/2000/svg" width="64" height="64" viewBox="0 0 64 64">
<title>kuiviewer — IrixClassic-SGI</title>
<desc>Original artwork inspired by the SGI Indigo Magic design language. MIT license.</desc>
<polygon points="6,51 38,35 59,46 27,62" fill="#50534e" stroke="none" stroke-width="1.1" stroke-linejoin="miter"/><polygon points="6,48 38,32 59,43 27,59" fill="#f3f2e9" stroke="#20201e" stroke-width="1.1" stroke-linejoin="miter"/><path d="M9 48L27 56L55 43" fill="none" stroke="#b9b8ad" stroke-width="1.2" stroke-linejoin="round" stroke-linecap="square"/><g transform="translate(3 -1) scale(.86)"><polygon points="11,16 44,4 54,11 21,25" fill="#f3f2e9" stroke="#20201e" stroke-width="1.1" stroke-linejoin="miter"/><polygon points="21,25 54,11 54,44 21,57" fill="#e3e1d7" stroke="#20201e" stroke-width="1.1" stroke-linejoin="miter"/><polygon points="25,27 50,17 50,23 25,33" fill="#76618d" stroke="#20201e" stroke-width="1.1" stroke-linejoin="miter"/><polygon points="26,38 35,34 35,48 26,52" fill="#b9b8ad" stroke="#20201e" stroke-width="1.1" stroke-linejoin="miter"/><path d="M39 35L49 31M39 41L49 37" fill="none" stroke="#52748c" stroke-width="2" stroke-linejoin="round" stroke-linecap="square"/></g>
</svg>
