<?xml version="1.0" encoding="UTF-8"?>
<!-- SPDX-License-Identifier: GPL-3.0-or-later; original integer-coordinate drawing, see ORIGEM.json. -->
<svg xmlns="http://www.w3.org/2000/svg" width="56" height="27" viewBox="0 0 56 27" shape-rendering="crispEdges">
  <title>DomainOS Mail postcard with the reference 56-to-27 face proportion</title>
  <rect x="0" y="0" width="56" height="27" fill="#a3d0e6"/>
  <rect x="55" y="0" width="1" height="27" fill="#194b63"/>
  <rect x="0" y="26" width="56" height="1" fill="#194b63"/>
  <rect x="3" y="2" width="6" height="2" fill="#194b63"/>
  <rect x="11" y="2" width="6" height="2" fill="#194b63"/>
  <rect x="45" y="2" width="6" height="7" fill="#194b63"/>
  <rect x="45" y="3" width="1" height="1" fill="#a3d0e6"/>
  <rect x="50" y="3" width="1" height="1" fill="#a3d0e6"/>
  <rect x="45" y="5" width="1" height="1" fill="#a3d0e6"/>
  <rect x="50" y="5" width="1" height="1" fill="#a3d0e6"/>
  <rect x="45" y="7" width="1" height="1" fill="#a3d0e6"/>
  <rect x="50" y="7" width="1" height="1" fill="#a3d0e6"/>
  <rect x="16" y="12" width="3" height="2" fill="#194b63"/>
  <rect x="21" y="12" width="10" height="2" fill="#194b63"/>
  <rect x="33" y="12" width="11" height="2" fill="#194b63"/>
  <rect x="16" y="16" width="5" height="2" fill="#194b63"/>
  <rect x="23" y="16" width="15" height="2" fill="#194b63"/>
  <rect x="40" y="16" width="4" height="2" fill="#194b63"/>
  <rect x="16" y="20" width="10" height="2" fill="#194b63"/>
  <rect x="28" y="20" width="3" height="2" fill="#194b63"/>
  <rect x="33" y="20" width="3" height="2" fill="#194b63"/>
</svg>
